<svg version="1.2" xmlns="http://www.w3.org/2000/svg" viewBox="0 0 1508 1508" width="1508" height="1508">
	<title>Turkish_Airlines_logo_2019_compact-svg</title>
	<style>
		.s0 { fill: #ffffff } 
		.s1 { fill: #c70a0c } 
	</style>
	<g id="layer1">
		<g id="g34">
			<g id="g32">
				<path id="white" fill-rule="evenodd" class="s0" d="m832.4 5.3c378.8 39.9 675.4 358.8 675.4 750 0 416-336.4 752.4-752.6 752.4-416.2 0-755.1-336.4-755.1-752.4 0-416.1 336.4-755 755.1-755 24.9 0 52.3 2.5 77.2 5zm39.9 1450.1c386.3-64.8 647.9-431 583.2-819.7-54.9-321.4-316.5-555.6-625.5-588-62.3-7.5-127.1-5-191.9 5-77.3 12.4-149.6 37.3-214.3 72.2 338.9 117.1 523.3 294 535.7 473.4 7.5 112.1-44.8 191.9-114.6 256.6l483.5-32.4c12.4 0 17.4 15 2.5 20l-1153.9 328.8c117.2 162 299.1 269.1 500.9 289.1 64.8 7.4 129.6 7.4 194.4-5zm-316.5-685.2c62.3-236.7-9.9-485.8-181.9-617.9-234.2 149.5-371.3 428.6-321.5 720.1 15 97.1 49.9 184.3 99.7 261.6 184.4-49.9 346.4-147 403.7-363.8z"/>
				<path id="red" class="s1" d="m872.3 1455.4c386.3-64.8 647.9-431 583.2-819.7-54.9-321.4-316.5-555.6-625.5-588-62.3-7.5-127.1-5-191.9 5-77.3 12.4-149.6 37.3-214.3 72.2 338.9 117.1 523.3 294 535.7 473.4 7.5 112.1-44.8 191.9-114.6 256.6l483.5-32.4c12.4 0 17.4 15 2.5 20l-1153.9 328.8c117.2 162 299.1 269.1 500.9 289.1 64.8 7.4 129.6 7.4 194.4-5zm-316.5-685.2c62.3-236.7-9.9-485.8-181.9-617.9-234.2 149.5-371.3 428.6-321.5 720.1 15 97.1 49.9 184.3 99.7 261.6 184.4-49.9 346.4-147 403.7-363.8z"/>
			</g>
		</g>
	</g>
</svg>