<?xml version="1.0" encoding="UTF-8" standalone="no" ?>
<!DOCTYPE svg PUBLIC "-//W3C//DTD SVG 1.1//EN" "http://www.w3.org/Graphics/SVG/1.1/DTD/svg11.dtd">
<svg xmlns="http://www.w3.org/2000/svg" xmlns:xlink="http://www.w3.org/1999/xlink" version="1.1" width="1080" height="1080" viewBox="0 0 1080 1080" xml:space="preserve">
<desc>Created with Fabric.js 5.2.4</desc>
<defs>
</defs>
<rect x="0" y="0" width="100%" height="100%" fill="transparent"></rect>
<g transform="matrix(1 0 0 1 540 540)" id="cd477a15-eb9f-4df9-b0d3-f23d94f984fc"  >
<rect style="stroke: none; stroke-width: 1; stroke-dasharray: none; stroke-linecap: butt; stroke-dashoffset: 0; stroke-linejoin: miter; stroke-miterlimit: 4; fill: rgb(255,255,255); fill-rule: nonzero; opacity: 1; visibility: hidden;" vector-effect="non-scaling-stroke"  x="-540" y="-540" rx="0" ry="0" width="1080" height="1080" />
</g>
<g transform="matrix(1 0 0 1 540 540)" id="4fa363ee-a665-4c28-a3dd-cc4ea188a4b5"  >
</g>
<g transform="matrix(1 0 0 1 540 540)" id="d5a630cf-9b46-424a-9224-a8aa54fdc385"  >
<path style="stroke: rgb(0,0,0); stroke-width: 0; stroke-dasharray: none; stroke-linecap: butt; stroke-dashoffset: 0; stroke-linejoin: miter; stroke-miterlimit: 4; fill: rgb(255,0,3); fill-rule: nonzero; opacity: 1;" vector-effect="non-scaling-stroke"  transform=" translate(-224, -252.24)" d="M 446.7 98.6 L 379.1 417.4 C 374 439.9 360.70000000000005 445.5 341.8 434.9 L 238.8 359 L 189.10000000000002 406.8 C 183.60000000000002 412.3 179.00000000000003 416.90000000000003 168.40000000000003 416.90000000000003 L 175.80000000000004 312 L 366.70000000000005 139.5 C 375.00000000000006 132.1 364.90000000000003 128 353.80000000000007 135.4 L 117.8 284 L 16.2 252.2 C -5.900000000000002 245.29999999999998 -6.300000000000001 230.1 20.799999999999997 219.5 L 418.2 66.4 C 436.59999999999997 59.50000000000001 452.7 70.5 446.7 98.60000000000001 z" stroke-linecap="round" />
</g>
<g transform="matrix(NaN NaN NaN NaN 0 0)"  >
<g style=""   >
</g>
</g>
<g transform="matrix(NaN NaN NaN NaN 0 0)"  >
<g style=""   >
</g>
</g>
<g transform="matrix(NaN NaN NaN NaN 0 0)"  >
<g style=""   >
</g>
</g>
</svg>